<svg width="12" height="7" viewBox="0 0 12 7" fill="none" xmlns="http://www.w3.org/2000/svg">
  <path d="M11.84 0.995977L6.38588 6.82893C6.33523 6.88316 6.27507 6.92618 6.20886 6.95554C6.14265 6.98489 6.07168 7 6 7C5.92832 7 5.85735 6.98489 5.79114 6.95554C5.72493 6.92618 5.66477 6.88316 5.61412 6.82893L0.159964 0.995977C0.0835992 0.9144 0.0315843 0.810425 0.0105038 0.697217C-0.0105768 0.584008 0.000224981 0.466655 0.0415416 0.360015C0.0828581 0.253376 0.152832 0.162244 0.242604 0.0981569C0.332376 0.0340698 0.43791 -9.06601e-05 0.545845 1.80705e-07H11.4542C11.5621 -9.06601e-05 11.6676 0.0340698 11.7574 0.0981569C11.8472 0.162244 11.9171 0.253376 11.9585 0.360015C11.9998 0.466655 12.0106 0.584008 11.9895 0.697217C11.9684 0.810425 11.9164 0.9144 11.84 0.995977Z" fill="white" fill-opacity="0.5" />
</svg>