<svg width="33" height="33" viewBox="0 0 33 33" fill="none" xmlns="http://www.w3.org/2000/svg">
  <path d="M16.5 8.88461C14.9938 8.88461 13.5215 9.33125 12.2691 10.168C11.0168 11.0048 10.0407 12.1942 9.4643 13.5857C8.88791 14.9772 8.7371 16.5084 9.03094 17.9857C9.32478 19.4629 10.0501 20.8199 11.1151 21.8849C12.1801 22.9499 13.5371 23.6752 15.0143 23.9691C16.4916 24.2629 18.0228 24.1121 19.4143 23.5357C20.8058 22.9593 21.9952 21.9832 22.832 20.7309C23.6687 19.4785 24.1154 18.0062 24.1154 16.5C24.1133 14.4809 23.3103 12.5451 21.8826 11.1174C20.4549 9.68972 18.5191 8.88671 16.5 8.88461ZM16.5 21.5769C15.4959 21.5769 14.5143 21.2792 13.6794 20.7213C12.8445 20.1634 12.1938 19.3705 11.8095 18.4429C11.4253 17.5152 11.3247 16.4944 11.5206 15.5095C11.7165 14.5247 12.2001 13.6201 12.9101 12.9101C13.6201 12.2001 14.5247 11.7165 15.5095 11.5206C16.4944 11.3247 17.5152 11.4253 18.4429 11.8095C19.3705 12.1938 20.1634 12.8445 20.7213 13.6794C21.2792 14.5143 21.5769 15.4959 21.5769 16.5C21.5769 17.8465 21.042 19.1378 20.0899 20.0899C19.1378 21.042 17.8465 21.5769 16.5 21.5769ZM24.1154 0H8.88461C6.52904 0.00251978 4.27067 0.939384 2.60503 2.60503C0.939384 4.27067 0.00251978 6.52904 0 8.88461V24.1154C0.00251978 26.471 0.939384 28.7293 2.60503 30.395C4.27067 32.0606 6.52904 32.9975 8.88461 33H24.1154C26.471 32.9975 28.7293 32.0606 30.395 30.395C32.0606 28.7293 32.9975 26.471 33 24.1154V8.88461C32.9975 6.52904 32.0606 4.27067 30.395 2.60503C28.7293 0.939384 26.471 0.00251978 24.1154 0ZM30.4615 24.1154C30.4615 25.7985 29.7929 27.4127 28.6028 28.6028C27.4127 29.7929 25.7985 30.4615 24.1154 30.4615H8.88461C7.20151 30.4615 5.58734 29.7929 4.39721 28.6028C3.20707 27.4127 2.53846 25.7985 2.53846 24.1154V8.88461C2.53846 7.20151 3.20707 5.58734 4.39721 4.39721C5.58734 3.20707 7.20151 2.53846 8.88461 2.53846H24.1154C25.7985 2.53846 27.4127 3.20707 28.6028 4.39721C29.7929 5.58734 30.4615 7.20151 30.4615 8.88461V24.1154ZM26.6538 8.25C26.6538 8.62654 26.5422 8.99463 26.333 9.30772C26.1238 9.62081 25.8265 9.86483 25.4786 10.0089C25.1307 10.153 24.7479 10.1907 24.3786 10.1173C24.0093 10.0438 23.67 9.86248 23.4038 9.59622C23.1375 9.32996 22.9562 8.99073 22.8827 8.62142C22.8093 8.25211 22.847 7.86931 22.9911 7.52143C23.1352 7.17355 23.3792 6.87621 23.6923 6.66701C24.0054 6.45781 24.3735 6.34615 24.75 6.34615C25.2549 6.34615 25.7392 6.54674 26.0962 6.90378C26.4533 7.26082 26.6538 7.74507 26.6538 8.25Z" fill="white" />
</svg>