<svg width="34" height="29" viewBox="0 0 34 29" fill="none" xmlns="http://www.w3.org/2000/svg">
  <path d="M33.9969 8.49448C33.936 10.5978 33.0669 12.5978 31.5687 14.0826L26.2947 19.334C25.5266 20.1025 24.6129 20.7119 23.6066 21.1267C22.6002 21.5415 21.5212 21.7535 20.4319 21.7505H20.4243C19.3165 21.7497 18.22 21.528 17.1997 21.0984C16.1794 20.6689 15.2559 20.0402 14.4839 19.2495C13.7119 18.4588 13.1069 17.5222 12.7047 16.4949C12.3025 15.4677 12.1113 14.3706 12.1423 13.2686C12.1514 12.9481 12.288 12.6444 12.5221 12.4242C12.7562 12.2039 13.0686 12.0853 13.3906 12.0943C13.7126 12.1033 14.0179 12.2393 14.2391 12.4722C14.4604 12.7052 14.5797 13.0161 14.5706 13.3365C14.5485 14.1157 14.6836 14.8915 14.9678 15.6178C15.2521 16.3442 15.6798 17.0065 16.2256 17.5656C16.7715 18.1247 17.4244 18.5693 18.1458 18.873C18.8672 19.1767 19.6425 19.3335 20.4258 19.334C21.1959 19.3359 21.9586 19.186 22.6701 18.8928C23.3815 18.5996 24.0275 18.169 24.5706 17.6258L29.8446 12.3775C30.9327 11.281 31.5407 9.80066 31.5359 8.25963C31.531 6.71861 30.9137 5.24207 29.8187 4.1524C28.7237 3.06272 27.24 2.44841 25.6914 2.44359C24.1429 2.43877 22.6553 3.04382 21.5535 4.12666L19.884 5.788C19.6545 6.00502 19.3488 6.12423 19.0322 6.12019C18.7156 6.11616 18.4131 5.98921 18.1892 5.76641C17.9653 5.5436 17.8378 5.24258 17.8337 4.92751C17.8297 4.61245 17.9494 4.30827 18.1675 4.07984L19.837 2.4185C20.6072 1.65176 21.5217 1.04353 22.5281 0.628557C23.5346 0.213586 24.6134 0 25.7028 0C26.7923 0 27.871 0.213586 28.8775 0.628557C29.884 1.04353 30.7984 1.65176 31.5687 2.4185C32.3664 3.21436 32.9931 4.16346 33.4106 5.20802C33.828 6.25258 34.0275 7.37075 33.9969 8.49448ZM14.1153 23.2094L12.4459 24.8708C11.9014 25.4162 11.2533 25.8486 10.5394 26.1426C9.82553 26.4366 9.06002 26.5865 8.28741 26.5835C7.12836 26.5825 5.99559 26.2398 5.03223 25.5984C4.06887 24.9571 3.31815 24.046 2.87492 22.9802C2.4317 21.9145 2.31585 20.7419 2.54203 19.6106C2.7682 18.4794 3.32625 17.4402 4.14566 16.6245L9.41049 11.3761C10.2397 10.5466 11.3005 9.98431 12.455 9.76236C13.6094 9.54041 14.8043 9.66904 15.8844 10.1315C16.9644 10.594 17.8798 11.369 18.5116 12.3559C19.1434 13.3427 19.4624 14.4958 19.4272 15.6654C19.4181 15.9859 19.5374 16.2968 19.7587 16.5297C19.98 16.7627 20.2852 16.8986 20.6072 16.9077C20.9292 16.9167 21.2416 16.798 21.4757 16.5778C21.7098 16.3576 21.8464 16.0538 21.8555 15.7334C21.8846 14.6114 21.6844 13.4953 21.267 12.4526C20.8496 11.41 20.2237 10.4626 19.4272 9.66799C17.8718 8.12086 15.7627 7.25176 13.5636 7.25176C11.3645 7.25176 9.25542 8.12086 7.70007 9.66799L2.42916 14.9163C1.27 16.0694 0.480326 17.5385 0.159935 19.138C-0.160456 20.7376 0.00281391 22.3957 0.629112 23.903C1.25541 25.4102 2.31663 26.6988 3.67865 27.6061C5.04067 28.5133 6.64237 28.9983 8.28134 29C9.37084 29.0031 10.4501 28.7911 11.4568 28.3763C12.4634 27.9615 13.3773 27.3522 14.1457 26.5835L15.8151 24.9221C16.0116 24.6918 16.1143 24.3966 16.1028 24.0947C16.0914 23.7928 15.9667 23.5061 15.7534 23.2911C15.54 23.0762 15.2535 22.9485 14.9503 22.9334C14.6471 22.9183 14.3492 23.0168 14.1153 23.2094Z" fill="white" />
</svg>