<svg width="35" height="32" viewBox="0 0 35 32" fill="none" xmlns="http://www.w3.org/2000/svg">
  <path d="M34.5133 0.350109C34.3196 0.178857 34.084 0.0649627 33.8318 0.0206972C33.5795 -0.0235683 33.3203 0.00347283 33.082 0.0989072L1.41662 12.7886C0.967849 12.9673 0.587913 13.2905 0.33401 13.7094C0.0801066 14.1284 -0.0340207 14.6204 0.00880981 15.1115C0.0516404 15.6027 0.249111 16.0662 0.571491 16.4325C0.893872 16.7987 1.32371 17.0478 1.7963 17.1423L10.0009 18.7919V28.16C9.99932 28.6702 10.1474 29.1692 10.426 29.5923C10.7046 30.0154 11.1008 30.343 11.5634 30.5328C12.0253 30.7259 12.5332 30.7723 13.0211 30.6658C13.5091 30.5594 13.9544 30.3051 14.2993 29.936L18.2556 25.7343L24.5321 31.36C24.9849 31.7713 25.569 31.9989 26.1743 32C26.4395 31.9998 26.7031 31.9571 26.9555 31.8736C27.3679 31.7396 27.7388 31.4973 28.0314 31.1708C28.3239 30.8443 28.5277 30.4451 28.6227 30.0128L34.9648 1.75972C35.0215 1.50492 35.0095 1.23911 34.9299 0.990788C34.8504 0.742466 34.7064 0.520993 34.5133 0.350109ZM24.9602 6.11016L10.9619 16.3759L3.21192 14.819L24.9602 6.11016ZM12.5009 28.16V20.5631L16.3743 24.0415L12.5009 28.16ZM26.1774 29.44L13.2587 17.8399L31.8523 4.19334L26.1774 29.44Z" fill="white" />
</svg>