<svg width="37" height="33" viewBox="0 0 37 33" fill="none" xmlns="http://www.w3.org/2000/svg">
  <path d="M36.8954 4.97465C36.7917 4.72339 36.6161 4.50862 36.3908 4.35749C36.1654 4.20636 35.9005 4.12566 35.6295 4.12561H30.4167C29.6879 2.88157 28.6507 1.84789 27.4059 1.12508C26.1611 0.402276 24.751 0.0149261 23.3129 0.000693518C22.2414 -0.0134072 21.1779 0.187644 20.1851 0.592019C19.1922 0.996393 18.2899 1.59592 17.5314 2.35533C16.7507 3.12398 16.1311 4.04147 15.709 5.05386C15.2868 6.06625 15.0707 7.1531 15.0732 8.25052V9.29722C8.17662 7.47194 2.53564 1.84315 2.47569 1.783C2.29183 1.5969 2.0588 1.46738 1.80404 1.40971C1.54928 1.35203 1.2834 1.36859 1.03771 1.45744C0.792014 1.5463 0.576741 1.70374 0.417241 1.91123C0.257741 2.11872 0.160655 2.36761 0.137415 2.62861C-0.600896 10.8423 1.77678 16.3388 3.90606 19.5029C4.94428 21.0671 6.2073 22.4687 7.65414 23.6622C5.04522 26.6751 0.937396 28.2581 0.892857 28.2753C0.699481 28.3479 0.524972 28.4635 0.38237 28.6133C0.239768 28.7632 0.13276 28.9434 0.0693414 29.1406C0.00592286 29.3378 -0.0122661 29.5468 0.016133 29.752C0.0445321 29.9572 0.118785 30.1533 0.233344 30.3257C0.361821 30.5182 0.875727 31.1936 2.13137 31.8244C3.68337 32.6047 5.73385 33 8.22115 33C20.3271 33 30.4424 23.6468 31.4754 11.6123L36.599 6.47337C36.7906 6.28097 36.9211 6.03589 36.9738 5.76911C37.0266 5.50234 36.9993 5.22586 36.8954 4.97465ZM29.1868 10.0294C28.9518 10.2657 28.8106 10.5797 28.7894 10.9128C28.0922 21.7562 19.0611 30.2501 8.22115 30.2501C6.41221 30.2501 5.13772 30.0094 4.24352 29.7207C6.21521 28.6465 8.96461 26.7989 10.7324 24.1383C10.8362 23.9819 10.9069 23.8057 10.9402 23.6208C10.9734 23.4359 10.9686 23.2461 10.9259 23.0631C10.8832 22.8801 10.8035 22.7079 10.6919 22.557C10.5803 22.4061 10.439 22.2798 10.2768 22.1859C10.1963 22.1394 2.75491 17.6588 2.73949 5.6862C5.48032 7.92053 10.4909 11.3872 16.2158 12.3531C16.412 12.3863 16.6131 12.3762 16.805 12.3236C16.9969 12.2709 17.1752 12.177 17.3272 12.0483C17.4793 11.9195 17.6017 11.7591 17.6857 11.5782C17.7698 11.3972 17.8136 11.2001 17.8141 11.0005V8.25052C17.8125 7.51706 17.9572 6.7907 18.2396 6.11418C18.5221 5.43766 18.9365 4.82465 19.4586 4.31123C19.959 3.80816 20.5549 3.41085 21.2111 3.14281C21.8672 2.87476 22.5702 2.74141 23.2786 2.75064C25.4473 2.77814 27.4738 4.10498 28.3217 6.05229C28.4286 6.29711 28.6043 6.50537 28.8273 6.65158C29.0503 6.79779 29.311 6.87562 29.5774 6.87555H32.3182L29.1868 10.0294Z" fill="white" />
</svg>