<svg width="21" height="21" viewBox="0 0 21 21" fill="none" xmlns="http://www.w3.org/2000/svg">
  <path d="M20.125 0H6.125C5.89294 0 5.67038 0.0921874 5.50628 0.256282C5.34219 0.420376 5.25 0.642936 5.25 0.875V5.25H0.875C0.642936 5.25 0.420376 5.34219 0.256282 5.50628C0.0921874 5.67038 0 5.89294 0 6.125V20.125C0 20.3571 0.0921874 20.5796 0.256282 20.7437C0.420376 20.9078 0.642936 21 0.875 21H14.875C15.1071 21 15.3296 20.9078 15.4937 20.7437C15.6578 20.5796 15.75 20.3571 15.75 20.125V15.75H20.125C20.3571 15.75 20.5796 15.6578 20.7437 15.4937C20.9078 15.3296 21 15.1071 21 14.875V0.875C21 0.642936 20.9078 0.420376 20.7437 0.256282C20.5796 0.0921874 20.3571 0 20.125 0ZM14 19.25H1.75V7H14V19.25ZM19.25 14H15.75V6.125C15.75 5.89294 15.6578 5.67038 15.4937 5.50628C15.3296 5.34219 15.1071 5.25 14.875 5.25H7V1.75H19.25V14Z" fill="white" />
</svg>