<svg width="13" height="13" viewBox="0 0 13 13" fill="none" xmlns="http://www.w3.org/2000/svg">
  <path d="M8.99692 2.00154C8.99692 1.86883 9.04964 1.74156 9.14348 1.64772C9.23732 1.55388 9.36459 1.50116 9.4973 1.50116H10.4981V0.500391C10.4981 0.367681 10.5508 0.240407 10.6446 0.146566C10.7385 0.052726 10.8657 7.11025e-06 10.9985 7.11025e-06C11.1312 7.11025e-06 11.2584 0.052726 11.3523 0.146566C11.4461 0.240407 11.4988 0.367681 11.4988 0.500391V1.50116H12.4996C12.6323 1.50116 12.7596 1.55388 12.8534 1.64772C12.9473 1.74156 13 1.86883 13 2.00154C13 2.13425 12.9473 2.26153 12.8534 2.35537C12.7596 2.44921 12.6323 2.50193 12.4996 2.50193H11.4988V3.5027C11.4988 3.63541 11.4461 3.76268 11.3523 3.85652C11.2584 3.95036 11.1312 4.00308 10.9985 4.00308C10.8657 4.00308 10.7385 3.95036 10.6446 3.85652C10.5508 3.76268 10.4981 3.63541 10.4981 3.5027V2.50193H9.4973C9.36459 2.50193 9.23732 2.44921 9.14348 2.35537C9.04964 2.26153 8.99692 2.13425 8.99692 2.00154ZM12.9099 5.42167C13.1385 6.78057 12.9294 8.17695 12.3126 9.40921C11.6959 10.6415 10.7034 11.6459 9.47867 12.2773C8.25388 12.9088 6.8601 13.1347 5.49857 12.9224C4.13703 12.7101 2.8782 12.0706 1.90381 11.0962C0.929426 10.1218 0.289916 8.86297 0.077614 7.50143C-0.134688 6.1399 0.0912049 4.74612 0.722677 3.52134C1.35415 2.29655 2.35852 1.30414 3.59079 0.687394C4.82305 0.0706455 6.21944 -0.138527 7.57833 0.0900763C7.70822 0.113047 7.82379 0.186377 7.89989 0.294115C7.976 0.401853 8.00648 0.535284 7.98472 0.665382C7.96295 0.795481 7.89069 0.911722 7.78367 0.988822C7.67664 1.06592 7.5435 1.09764 7.4132 1.07708C6.62393 0.944311 5.8152 0.985123 5.0433 1.19668C4.27141 1.40824 3.55488 1.78546 2.94359 2.30209C2.3323 2.81872 1.84094 3.46235 1.50369 4.18819C1.16643 4.91403 0.991401 5.70464 0.990768 6.505C0.989582 7.85241 1.4848 9.15303 2.38184 10.1584C2.93991 9.34974 3.72463 8.72409 4.63732 8.36018C4.14706 7.97404 3.78931 7.44472 3.61383 6.84583C3.43834 6.24694 3.45385 5.60825 3.65818 5.01858C3.86252 4.42891 4.24553 3.91757 4.75395 3.55567C5.26237 3.19377 5.87093 2.9993 6.495 2.9993C7.11907 2.9993 7.72762 3.19377 8.23604 3.55567C8.74446 3.91757 9.12747 4.42891 9.33181 5.01858C9.53614 5.60825 9.55165 6.24694 9.37616 6.84583C9.20068 7.44472 8.84293 7.97404 8.35267 8.36018C9.26536 8.72409 10.0501 9.34974 10.6082 10.1584C11.5052 9.15303 12.0004 7.85241 11.9992 6.505C11.9992 6.19735 11.9737 5.89023 11.9229 5.5868C11.9114 5.52171 11.9129 5.45498 11.9273 5.39047C11.9418 5.32596 11.9688 5.26495 12.007 5.21096C12.0451 5.15697 12.0935 5.11107 12.1495 5.07591C12.2055 5.04076 12.2679 5.01704 12.3331 5.00613C12.3983 4.99523 12.465 4.99735 12.5294 5.01237C12.5937 5.02739 12.6545 5.05502 12.7081 5.09365C12.7618 5.13229 12.8072 5.18117 12.8418 5.23747C12.8765 5.29377 12.8996 5.35638 12.9099 5.42167ZM6.495 8.00616C6.89086 8.00616 7.27784 7.88877 7.60699 7.66884C7.93614 7.44891 8.19268 7.13631 8.34418 6.77057C8.49567 6.40484 8.5353 6.0024 8.45807 5.61414C8.38085 5.22588 8.19022 4.86924 7.9103 4.58932C7.63038 4.3094 7.27374 4.11877 6.88548 4.04154C6.49722 3.96431 6.09477 4.00395 5.72904 4.15544C5.36331 4.30693 5.05071 4.56347 4.83078 4.89263C4.61085 5.22178 4.49346 5.60875 4.49346 6.00462C4.49346 6.53546 4.70433 7.04456 5.0797 7.41992C5.45506 7.79528 5.96416 8.00616 6.495 8.00616ZM6.495 12.0092C7.71679 12.0105 8.90391 11.6032 9.86759 10.8521C9.5056 10.286 9.00692 9.82006 8.41752 9.49734C7.82812 9.17462 7.16697 9.00546 6.495 9.00546C5.82303 9.00546 5.16187 9.17462 4.57247 9.49734C3.98307 9.82006 3.48439 10.286 3.12241 10.8521C4.08608 11.6032 5.27321 12.0105 6.495 12.0092Z" fill="white" />
</svg>