<svg width="16" height="16" viewBox="0 0 16 16" fill="none" xmlns="http://www.w3.org/2000/svg">
  <path d="M12.5234 8.3475L8.96675 7.03325L7.65663 3.47387C7.57905 3.2631 7.43868 3.0812 7.25447 2.95271C7.07026 2.82423 6.85107 2.75533 6.62647 2.75533C6.40187 2.75533 6.18268 2.82423 5.99847 2.95271C5.81426 3.0812 5.67389 3.2631 5.59631 3.47387L4.27792 7.03325L0.71854 8.34337C0.507769 8.42095 0.325868 8.56132 0.19738 8.74553C0.0688917 8.92974 0 9.14893 0 9.37353C0 9.59813 0.0688917 9.81732 0.19738 10.0015C0.325868 10.1857 0.507769 10.3261 0.71854 10.4037L4.27792 11.7221L5.58803 15.2815C5.66562 15.4922 5.80598 15.6741 5.9902 15.8026C6.17441 15.9311 6.3936 16 6.6182 16C6.84279 16 7.06198 15.9311 7.2462 15.8026C7.43041 15.6741 7.57078 15.4922 7.64836 15.2815L8.96675 11.7221L12.5261 10.412C12.7369 10.3344 12.9188 10.194 13.0473 10.0098C13.1758 9.82559 13.2447 9.6064 13.2447 9.3818C13.2447 9.15721 13.1758 8.93802 13.0473 8.7538C12.9188 8.56959 12.7369 8.42922 12.5261 8.35164L12.5234 8.3475ZM8.34617 10.7719C8.27129 10.7995 8.20329 10.843 8.14686 10.8994C8.09044 10.9559 8.04692 11.0239 8.01933 11.0987L6.62233 14.8836L5.22809 11.1015C5.20054 11.0258 5.15676 10.9571 5.09982 10.9002C5.04288 10.8432 4.97416 10.7995 4.8985 10.7719L1.1164 9.37767L4.8985 7.98343C4.97416 7.95588 5.04288 7.91209 5.09982 7.85515C5.15676 7.79821 5.20054 7.7295 5.22809 7.65383L6.62233 3.87174L8.01657 7.65383C8.04417 7.72871 8.08768 7.79671 8.14411 7.85313C8.20053 7.90956 8.26853 7.95307 8.34341 7.98067L12.1283 9.37767L8.34617 10.7719ZM8.82884 2.20651C8.82884 2.06021 8.88696 1.9199 8.99041 1.81645C9.09386 1.713 9.23417 1.65488 9.38047 1.65488H10.4837V0.551627C10.4837 0.405327 10.5418 0.265018 10.6453 0.161568C10.7487 0.0581177 10.8891 0 11.0354 0C11.1817 0 11.322 0.0581177 11.4254 0.161568C11.5289 0.265018 11.587 0.405327 11.587 0.551627V1.65488H12.6902C12.8365 1.65488 12.9768 1.713 13.0803 1.81645C13.1837 1.9199 13.2419 2.06021 13.2419 2.20651C13.2419 2.35281 13.1837 2.49312 13.0803 2.59657C12.9768 2.70002 12.8365 2.75814 12.6902 2.75814H11.587V3.86139C11.587 4.00769 11.5289 4.148 11.4254 4.25145C11.322 4.3549 11.1817 4.41302 11.0354 4.41302C10.8891 4.41302 10.7487 4.3549 10.6453 4.25145C10.5418 4.148 10.4837 4.00769 10.4837 3.86139V2.75814H9.38047C9.23417 2.75814 9.09386 2.70002 8.99041 2.59657C8.88696 2.49312 8.82884 2.35281 8.82884 2.20651ZM16 5.51627C16 5.66258 15.9419 5.80288 15.8384 5.90633C15.735 6.00978 15.5947 6.0679 15.4484 6.0679H14.8967V6.61953C14.8967 6.76583 14.8386 6.90614 14.7352 7.00959C14.6317 7.11304 14.4914 7.17116 14.3451 7.17116C14.1988 7.17116 14.0585 7.11304 13.9551 7.00959C13.8516 6.90614 13.7935 6.76583 13.7935 6.61953V6.0679H13.2419C13.0956 6.0679 12.9553 6.00978 12.8518 5.90633C12.7484 5.80288 12.6902 5.66258 12.6902 5.51627C12.6902 5.36997 12.7484 5.22967 12.8518 5.12621C12.9553 5.02277 13.0956 4.96465 13.2419 4.96465H13.7935V4.41302C13.7935 4.26672 13.8516 4.12641 13.9551 4.02296C14.0585 3.91951 14.1988 3.86139 14.3451 3.86139C14.4914 3.86139 14.6317 3.91951 14.7352 4.02296C14.8386 4.12641 14.8967 4.26672 14.8967 4.41302V4.96465H15.4484C15.5947 4.96465 15.735 5.02277 15.8384 5.12621C15.9419 5.22967 16 5.36997 16 5.51627Z" fill="white" />
</svg>