<svg width="24" height="11" viewBox="0 0 24 11" fill="none" xmlns="http://www.w3.org/2000/svg">
  <path d="M24 5.5C24.0001 6.58778 23.6717 7.65114 23.0563 8.55562C22.4409 9.4601 21.5662 10.1651 20.5427 10.5813C19.5193 10.9976 18.3932 11.1065 17.3067 10.8943C16.2203 10.6821 15.2223 10.1582 14.439 9.389L14.406 9.35463L8.41044 2.70601C7.84912 2.16125 7.13625 1.79169 6.36154 1.64385C5.58683 1.49602 4.7849 1.5765 4.05666 1.87517C3.32842 2.17384 2.70642 2.67736 2.26893 3.32236C1.83143 3.96736 1.598 4.72502 1.598 5.5C1.598 6.27498 1.83143 7.03264 2.26893 7.67764C2.70642 8.32264 3.32842 8.82616 4.05666 9.12483C4.7849 9.4235 5.58683 9.50398 6.36154 9.35615C7.13625 9.20831 7.84912 8.83875 8.41044 8.29399L9.26252 7.34924C9.3322 7.27186 9.41671 7.20871 9.51123 7.1634C9.60576 7.1181 9.70845 7.09152 9.81343 7.08518C9.91842 7.07884 10.0237 7.09287 10.1231 7.12647C10.2226 7.16006 10.3143 7.21257 10.3931 7.28099C10.4719 7.3494 10.5362 7.43239 10.5824 7.52521C10.6285 7.61804 10.6556 7.71887 10.662 7.82197C10.6685 7.92506 10.6542 8.02839 10.62 8.12607C10.5858 8.22374 10.5323 8.31384 10.4626 8.39122L9.59356 9.35463L9.56055 9.389C8.77728 10.1581 7.77935 10.6818 6.69297 10.894C5.60658 11.1061 4.48052 10.9972 3.45719 10.5809C2.43385 10.1646 1.5592 9.45975 0.943825 8.55536C0.328453 7.65096 0 6.58769 0 5.5C0 4.41231 0.328453 3.34904 0.943825 2.44464C1.5592 1.54025 2.43385 0.835353 3.45719 0.419085C4.48052 0.00281661 5.60658 -0.106126 6.69297 0.106032C7.77935 0.318189 8.77728 0.84192 9.56055 1.611L9.59356 1.64537L15.5892 8.29399C16.1505 8.83875 16.8633 9.20831 17.6381 9.35615C18.4128 9.50398 19.2147 9.4235 19.9429 9.12483C20.6712 8.82616 21.2932 8.32264 21.7307 7.67764C22.1682 7.03264 22.4016 6.27498 22.4016 5.5C22.4016 4.72502 22.1682 3.96736 21.7307 3.32236C21.2932 2.67736 20.6712 2.17384 19.9429 1.87517C19.2147 1.5765 18.4128 1.49602 17.6381 1.64385C16.8633 1.79169 16.1505 2.16125 15.5892 2.70601L14.7371 3.65076C14.5964 3.80704 14.3982 3.90202 14.1862 3.91482C13.9741 3.92762 13.7656 3.85719 13.6065 3.71901C13.4473 3.58084 13.3506 3.38624 13.3375 3.17803C13.3245 2.96982 13.3962 2.76506 13.537 2.60878L14.406 1.64537L14.439 1.611C15.2223 0.841784 16.2203 0.317934 17.3067 0.105697C18.3932 -0.106539 19.5193 0.00237258 20.5427 0.418657C21.5662 0.834942 22.4409 1.5399 23.0563 2.44438C23.6717 3.34886 24.0001 4.41222 24 5.5Z" fill="white" />
</svg>