<svg width="18" height="15" viewBox="0 0 18 15" fill="none" xmlns="http://www.w3.org/2000/svg">
  <path d="M17.2716 9.3795C17.0484 9.20756 16.7886 9.08948 16.5124 9.03445C16.2361 8.97942 15.9509 8.98894 15.6789 9.06225L12.5415 9.78375C12.6144 9.47534 12.6167 9.15441 12.548 8.84501C12.4794 8.53561 12.3416 8.24576 12.145 7.9972C11.9485 7.74863 11.6982 7.54779 11.4129 7.40973C11.1277 7.27167 10.8149 7.19997 10.4981 7.2H6.74426C6.42902 7.19921 6.11675 7.26091 5.82548 7.38153C5.53422 7.50215 5.26974 7.6793 5.04732 7.90275L3.35114 9.6H1.19978C0.881579 9.6 0.57641 9.72643 0.351407 9.95147C0.126405 10.1765 0 10.4817 0 10.8L0 13.8C0 14.1183 0.126405 14.4235 0.351407 14.6485C0.57641 14.8736 0.881579 15 1.19978 15H8.99835C9.0474 15 9.09626 14.994 9.14382 14.982L13.9429 13.782C13.9735 13.7747 14.0034 13.7647 14.0322 13.752L16.9469 12.5115L16.9799 12.4965C17.26 12.3565 17.4999 12.1475 17.6769 11.8891C17.854 11.6308 17.9623 11.3316 17.9918 11.0198C18.0213 10.708 17.9709 10.3938 17.8454 10.1068C17.72 9.81983 17.5235 9.56954 17.2746 9.3795H17.2716ZM1.19978 10.8H2.99945V13.8H1.19978V10.8ZM16.4542 11.4158L13.6048 12.6293L8.92336 13.8H4.19923V10.4482L5.89617 8.75175C6.00718 8.63984 6.13932 8.55111 6.28491 8.49072C6.43051 8.43033 6.58665 8.3995 6.74426 8.4H10.4981C10.7367 8.4 10.9656 8.49482 11.1344 8.6636C11.3031 8.83239 11.3979 9.06131 11.3979 9.3C11.3979 9.5387 11.3031 9.76761 11.1344 9.9364C10.9656 10.1052 10.7367 10.2 10.4981 10.2H8.39846C8.23936 10.2 8.08678 10.2632 7.97427 10.3757C7.86177 10.4883 7.79857 10.6409 7.79857 10.8C7.79857 10.9591 7.86177 11.1117 7.97427 11.2243C8.08678 11.3368 8.23936 11.4 8.39846 11.4H10.798C10.8432 11.3999 10.8882 11.3948 10.9322 11.385L15.9563 10.2292L15.9796 10.2232C16.1329 10.1807 16.2966 10.1963 16.4392 10.2672C16.5817 10.3381 16.693 10.4591 16.7516 10.6072C16.8102 10.7552 16.8121 10.9196 16.7568 11.0689C16.7014 11.2182 16.5929 11.3417 16.452 11.4158H16.4542ZM11.5734 4.6245C11.4608 4.51192 11.3976 4.35922 11.3976 4.2C11.3976 4.04078 11.4608 3.88808 11.5734 3.7755C11.6859 3.66292 11.8386 3.59967 11.9978 3.59967C12.157 3.59967 12.3097 3.66292 12.4222 3.7755L13.7975 5.15175V0.6C13.7975 0.44087 13.8607 0.288258 13.9732 0.175736C14.0857 0.0632141 14.2383 0 14.3974 0C14.5565 0 14.709 0.0632141 14.8215 0.175736C14.934 0.288258 14.9973 0.44087 14.9973 0.6V5.15175L16.3725 3.7755C16.4851 3.66292 16.6377 3.59967 16.7969 3.59967C16.9561 3.59967 17.1088 3.66292 17.2213 3.7755C17.3339 3.88808 17.3971 4.04078 17.3971 4.2C17.3971 4.35922 17.3339 4.51192 17.2213 4.6245L14.8218 7.0245C14.7661 7.08029 14.6999 7.12454 14.6271 7.15474C14.5543 7.18493 14.4762 7.20047 14.3974 7.20047C14.3185 7.20047 14.2405 7.18493 14.1676 7.15474C14.0948 7.12454 14.0287 7.08029 13.9729 7.0245L11.5734 4.6245Z" fill="white" />
</svg>